<?xml version="1.0" encoding="UTF-8"?>
<svg version="1.1" xmlns="http://www.w3.org/2000/svg" width="225" height="225">
<path d="M0 0 C74.25 0 148.5 0 225 0 C225 74.25 225 148.5 225 225 C150.75 225 76.5 225 0 225 C0 150.75 0 76.5 0 0 Z " fill="#FEFEFE" transform="translate(0,0)"/>
<path d="M0 0 C4.46580742 0.75691651 5.64411971 1.87448062 8.28125 5.40234375 C14.22272341 14.79317256 16.46702039 24.89637041 18.6875 35.625 C18.95433594 36.84574219 19.22117187 38.06648438 19.49609375 39.32421875 C20.80460827 45.70407452 21.75235828 51.97558948 22.36328125 58.45703125 C22.48050537 59.66762207 22.59772949 60.87821289 22.71850586 62.12548828 C22.9445044 64.5477949 23.15038042 66.97207935 23.33422852 69.39794922 C23.76931254 74.09902023 24.15840865 77.69398088 26.5078125 81.828125 C31.50076087 84.64969287 36.53793242 84.77057795 42.1875 85.1875 C44.63209181 85.41439374 47.07611091 85.64753899 49.51953125 85.88671875 C50.73205566 86.00450684 51.94458008 86.12229492 53.19384766 86.24365234 C71.01721505 88.18915199 91.45627293 91.88840924 106.3125 102.5 C108.45804622 105.81584416 108.41912033 107.76736552 107.6875 111.625 C100.72961593 121.74784217 83.38565696 124.98431456 72.16357422 127.10107422 C60.27869568 129.28979904 48.46353782 131.14614307 36.37524414 131.67797852 C32.32344211 131.94572941 30.12649016 132.33613083 26.671875 134.609375 C23.9591866 138.73180698 23.83938172 142.09184261 23.625 146.9375 C23.49000224 148.82863241 23.3477881 150.71926036 23.19921875 152.609375 C23.1223584 153.59486328 23.04549805 154.58035156 22.96630859 155.59570312 C21.78450824 168.43613986 19.38431315 181.19437575 15.75 193.5625 C15.40727051 194.74114624 15.40727051 194.74114624 15.05761719 195.94360352 C12.9478288 202.69304002 9.73595235 211.53339988 3.6875 215.625 C0.3125 216.3125 0.3125 216.3125 -3.3125 215.625 C-16.29130395 206.33192436 -18.51897979 182.52751171 -20.95556641 167.96655273 C-22.19996061 160.11431451 -23.01552793 152.25665216 -23.36572266 144.31225586 C-23.62150419 140.43650872 -24.0731798 138.03734224 -26.046875 134.63671875 C-31.24389416 131.43520575 -36.6273469 131.51973025 -42.625 131.125 C-63.32953045 129.36156346 -86.8523389 126.95877659 -104.3125 114.625 C-104.93125 114.191875 -105.55 113.75875 -106.1875 113.3125 C-108.21085591 110.27746614 -107.9096178 108.14799505 -107.3125 104.625 C-97.37811391 91.08407111 -72.89175913 89.23889375 -57.74023438 86.90258789 C-49.36106718 85.65826544 -41.02540704 84.51000393 -32.57128906 83.92260742 C-29.59350691 83.53026885 -27.61109625 82.54049688 -25.3125 80.625 C-24.0130561 78.02611219 -23.97884306 75.83085666 -23.734375 72.9296875 C-17.46494688 3.295273 -17.46494688 3.295273 0 0 Z " fill="#8A53E1" transform="translate(112.3125,4.375)"/>
<path d="M0 0 C4.01209018 0.52090674 6.21999735 2.44698359 8.828125 5.3671875 C10.87582346 8.13541151 12.64699117 11.0251029 14.390625 13.9921875 C14.86806152 14.78963379 15.34549805 15.58708008 15.83740234 16.40869141 C26.90399685 35.14640491 26.90399685 35.14640491 25.828125 45.3671875 C23.42499432 48.78982817 21.94101767 50.13533486 17.828125 50.9921875 C4.13623092 49.86844673 -12.27601445 39.50004946 -22.171875 30.3671875 C-24.72970764 26.53043854 -24.23765038 24.72354965 -23.859375 20.1796875 C-23.77707642 19.17192261 -23.77707642 19.17192261 -23.69311523 18.14379883 C-23.53118946 16.21723164 -23.35196428 14.29214177 -23.171875 12.3671875 C-23.09710938 11.47773438 -23.02234375 10.58828125 -22.9453125 9.671875 C-22.44390369 4.63921619 -22.44390369 4.63921619 -20.171875 2.3671875 C-17.40443632 1.89427076 -14.7087856 1.52790438 -11.921875 1.2421875 C-11.17035156 1.15582031 -10.41882813 1.06945312 -9.64453125 0.98046875 C-6.43098347 0.62714674 -3.21190913 0.37182199 0 0 Z " fill="#B28EEB" transform="translate(165.171875,140.6328125)"/>
<path d="M0 0 C2.125 1.625 2.125 1.625 3.125 3.625 C3.54152238 18.56030235 -6.23211412 33.41660403 -14.9375 45 C-18.9608642 48.59534673 -22.88271169 48.73738021 -28.08520508 48.54199219 C-30.31703614 48.35443098 -32.52879767 48.09891819 -34.75 47.8125 C-35.50796875 47.72935547 -36.2659375 47.64621094 -37.046875 47.56054688 C-42.61856478 46.88143522 -42.61856478 46.88143522 -44.875 44.625 C-45.34791674 41.85756132 -45.71428312 39.1619106 -46 36.375 C-46.08636719 35.62347656 -46.17273438 34.87195313 -46.26171875 34.09765625 C-46.498741 31.94188245 -46.68923479 29.78568811 -46.875 27.625 C-47.05675781 26.05492187 -47.05675781 26.05492187 -47.2421875 24.453125 C-46.63529218 19.77873974 -43.77933768 17.1168904 -40.22021484 14.32861328 C-38.37098141 13.04327623 -36.48888352 11.85393406 -34.5625 10.6875 C-33.86970947 10.26291504 -33.17691895 9.83833008 -32.46313477 9.40087891 C-27.54959435 6.46261164 -22.53173054 3.85108803 -17.3125 1.5 C-16.67078857 1.20488525 -16.02907715 0.90977051 -15.36791992 0.60571289 C-10.05314218 -1.66868202 -5.32126136 -2.54495109 0 0 Z " fill="#B28EEB" transform="translate(187.875,35.375)"/>
<path d="M0 0 C1.68802734 0.20689453 1.68802734 0.20689453 3.41015625 0.41796875 C4.51230469 0.56878906 5.61445312 0.71960938 6.75 0.875 C8.64544901 1.02574627 10.54125364 1.17213924 12.4375 1.3125 C16.5 1.625 16.5 1.625 18.75 3.875 C19.46151414 7.49969469 19.54852164 11.19145003 19.75 14.875 C19.90082031 16.67130859 19.90082031 16.67130859 20.0546875 18.50390625 C20.52856642 27.4412626 20.52856642 27.4412626 18.71484375 30.78125 C16.85465787 32.49395311 14.95246709 33.62383325 12.75 34.875 C11.66847656 35.58011719 10.58695313 36.28523438 9.47265625 37.01171875 C-0.30680756 43.30310821 -12.27821242 50.89786031 -24.25 49.875 C-27.1875 47.875 -27.1875 47.875 -29.25 44.875 C-29.73641643 39.01337412 -28.86751855 34.72408226 -26.375 29.375 C-26.06763916 28.69719482 -25.76027832 28.01938965 -25.44360352 27.32104492 C-22.99472813 22.09561503 -20.19952006 17.10732327 -17.1875 12.1875 C-16.78869629 11.52878906 -16.38989258 10.87007812 -15.97900391 10.19140625 C-11.9619998 3.87127626 -8.14128622 -1.1028836 0 0 Z " fill="#B28EEB" transform="translate(63.25,141.125)"/>
<path d="M0 0 C12.60340438 3.71090739 26.09959777 11.06834777 35.44140625 20.41015625 C36.03289881 29.15874387 35.28639711 37.8450892 33.44140625 46.41015625 C31.41582993 48.43573257 27.6006276 48.13765636 24.81640625 48.47265625 C24.11644531 48.56353516 23.41648438 48.65441406 22.6953125 48.74804688 C20.61278835 49.00498167 18.53049441 49.21446064 16.44140625 49.41015625 C15.23742187 49.53261719 14.0334375 49.65507813 12.79296875 49.78125 C8.45132513 49.30053188 6.23144353 47.59456187 3.44140625 44.41015625 C1.41612287 41.70296165 -0.33900178 38.88171728 -2.05859375 35.97265625 C-2.53272705 35.17931885 -3.00686035 34.38598145 -3.49536133 33.56860352 C-15.20353632 13.60880015 -15.20353632 13.60880015 -13.55859375 3.41015625 C-10.21195577 -2.07833004 -5.54840088 -1.279097 0 0 Z " fill="#B28EEB" transform="translate(47.55859375,34.58984375)"/>
</svg>
